# xmcd
#
# Track frame offsets:
#	150
#	14578
#	30906
#	42229
#	55293
#
# Disc length: 931 seconds
# Revision: 0
# Processed by: cddbd v1.5.1PL0 Copyright (c) Steve Scherf et al.
# Submitted via: cdrLabel 6.0
#
DISCID=3603a105
DTITLE=Bernie Kirley  - Mustering
DYEAR=2005
DGENRE=country
TTITLE0=Mustering
TTITLE1=V8 Mack
TTITLE2=Only Dreams
TTITLE3=Hay Carting
TTITLE4=The Loggers
EXTD=
EXTT0=
EXTT1=
EXTT2=
EXTT3=
EXTT4=
PLAYORDER=
